<svg xmlns="http://www.w3.org/2000/svg" viewBox="0 0 296.65 155.1"><title>title</title><path d="M302.89,289.45V301.5h-8.65V266.45h1.85v33.2h5V287.6h6.15a9.75,9.75,0,0,0,5.65-1.55c2.4-1.45,3.65-4.4,3.65-8.25,0-6.2-3.5-9.5-10-9.5h-7.15v12.45h6.4c2.6,0,3.6-.8,3.6-3a2.29,2.29,0,0,0-2.6-2.6H303v4.05l-1.85.05v-5.85h5.65c2.75,0,4.3,1.6,4.3,4.35,0,3.2-1.75,4.8-5.3,4.8h-8.1V266.45h8.85c7.25,0,11.7,4.2,11.7,11.35,0,7.4-4.05,11.65-11.05,11.65Zm-3.5-3.45v12.5h-1.7V284.25h8.4c4.65,0,6.9-2,6.9-6.2,0-4-2.15-6.25-5.6-6.25h-6.25V270h6.25a7,7,0,0,1,6.5,3.7,9.64,9.64,0,0,1,.9,4.35c0,5.2-2.9,8-8.7,8Z" transform="translate(-281.23 -266.4)" style="fill:#df210d"/><path d="M337.79,301.5a17.94,17.94,0,0,1-15.2-8.85,16.78,16.78,0,0,1-2.4-8.7,17.69,17.69,0,0,1,8.9-15.2,17.49,17.49,0,0,1,8.7-2.35,17.75,17.75,0,0,1,15.2,8.85,17.49,17.49,0,0,1,2.35,8.7,17.91,17.91,0,0,1-8.8,15.15A17.08,17.08,0,0,1,337.79,301.5Zm0-33.35a15.8,15.8,0,0,0-7.9,29.45,15.44,15.44,0,0,0,7.9,2.1,15.71,15.71,0,0,0,13.7-7.85,15.86,15.86,0,0,0-5.8-21.6A15.71,15.71,0,0,0,337.79,268.15Zm0,30a14.44,14.44,0,0,1-12.35-7.1,13.37,13.37,0,0,1-2-7.05,14,14,0,0,1,14.3-14.1c5.45,0,10,2.5,12.35,6.8a15.29,15.29,0,0,1,1.75,7.3,14.11,14.11,0,0,1-14.1,14.15Zm0-26.5A12.47,12.47,0,0,0,327,277.7a12.44,12.44,0,0,0,4.55,17,11.56,11.56,0,0,0,6.2,1.7,12.25,12.25,0,0,0,10.7-6.25,12.07,12.07,0,0,0,1.65-6.15A12.29,12.29,0,0,0,344,273.2,12.87,12.87,0,0,0,337.79,271.6Zm0,23.25a10.8,10.8,0,0,1-9.45-5.5,10.49,10.49,0,0,1-1.5-5.4,10.88,10.88,0,0,1,5.45-9.45,10.75,10.75,0,0,1,16.2,9.45,10.58,10.58,0,0,1-5.25,9.4A10.4,10.4,0,0,1,337.79,294.85Zm0-20a9.18,9.18,0,0,0-7.85,4.55,8.5,8.5,0,0,0-1.25,4.5,9,9,0,0,0,9.1,9,8.81,8.81,0,0,0,7.8-4.5,9.16,9.16,0,0,0-3.3-12.3A8.92,8.92,0,0,0,337.79,274.9Z" transform="translate(-281.23 -266.4)" style="fill:#df210d"/><path d="M360.24,297.3a23.32,23.32,0,0,0,8.9,2.4c.15,0,1.15-.15,3-.4a8.71,8.71,0,0,0,5.45-4.55l.1-.2a8,8,0,0,0,.8-3.75,7.28,7.28,0,0,0-.75-3.3,9.75,9.75,0,0,0-4.15-4.15c-1.35-.65-2.15-1-2.4-1.1l-1.25-.4-.65-.2c-2.7-.8-4.4-1.9-5.05-3.25a2.39,2.39,0,0,1-.25-1.2,3.72,3.72,0,0,1,.35-1.8l0-.1a3.76,3.76,0,0,1,2.45-2,4.2,4.2,0,0,1,1.75-.2c1.9,0,4.5.8,7.75,2.4l.8-1.25a18.21,18.21,0,0,0-8.7-2.65l-2,.25A5.71,5.71,0,0,0,363,274.7a4.81,4.81,0,0,0-.5,2.35,4.36,4.36,0,0,0,.45,2c.8,1.75,2.75,3,5.9,4l.65.2a27.06,27.06,0,0,1,4,1.65,6.24,6.24,0,0,1,3.5,5.85,7.86,7.86,0,0,1-1,4,7.53,7.53,0,0,1-6.8,3.5,17.89,17.89,0,0,1-8.15-2.15l.05-.1.85-1.45a21.84,21.84,0,0,0,7.2,1.9,5.68,5.68,0,0,0,5.35-2.8,6,6,0,0,0,.7-2.8,4.49,4.49,0,0,0-2.4-4.1,15.44,15.44,0,0,0-2.45-1.2L369,285l-.65-.2c-3.65-1.1-6-2.75-7.05-5a6.27,6.27,0,0,1-.6-2.7,6.46,6.46,0,0,1,.65-3.1,7.34,7.34,0,0,1,4.6-3.85,6.21,6.21,0,0,1,2.65-.35,20.8,20.8,0,0,1,10.25,3.4l.8.45-2.7,4.3-.75-.45a16,16,0,0,0-7.65-2.65,4.24,4.24,0,0,0-1.65.2,2.13,2.13,0,0,0-1.1,2.05l.1.55a5.62,5.62,0,0,0,1.1,1.05,10.09,10.09,0,0,0,2.8,1.25l.7.2c4.4,1.4,7.3,3.45,8.65,6.15a13.34,13.34,0,0,1,1.15,4.55,12.1,12.1,0,0,1-.9,4.35l-.2.35a10.32,10.32,0,0,1-6.6,5.5,12.51,12.51,0,0,1-3.45.45,23.08,23.08,0,0,1-12.05-3.9l-.75-.45,4.4-7.1.75.45a16,16,0,0,0,7.65,2.65q2,0,2.55-1.2a1.87,1.87,0,0,0,.2-1,1.07,1.07,0,0,0-.15-.6l0-.1c-.45-.8-1.65-1.5-3.7-2.15l-.6-.2c-4.5-1.35-7.5-3.55-9.05-6.65a9,9,0,0,1-.9-4.1,11.3,11.3,0,0,1,.9-4.35l.15-.35a10.1,10.1,0,0,1,6.6-5.45,9.1,9.1,0,0,1,3.5-.5c3.65,0,7.85,1.45,12.7,4.4l-1,1.55c-4.45-2.75-8.4-4.15-11.8-4.15-.15,0-1.15.15-3,.4a8.71,8.71,0,0,0-5.45,4.55l-.1.2a9.78,9.78,0,0,0-.75,3.7,7.28,7.28,0,0,0,.75,3.3c1.25,2.65,3.85,4.55,7.9,5.75l.15,0,.5.15c2.65.85,4.1,1.75,4.75,3.1l.1.2a3.47,3.47,0,0,1-.05,3l0,.1a3.61,3.61,0,0,1-2.45,2,4.07,4.07,0,0,1-1.7.2,16.13,16.13,0,0,1-6.4-1.65l-1.4-.75-2.5,4.05Z" transform="translate(-281.23 -266.4)" style="fill:#df210d"/><path d="M396.64,274.8v23.4h-1.8V273h12v-4.75H385.54v1.55h19.55v1.8H383.73v-5.15h24.85v8.35Zm3.45,1.55V301.5h-8.6V274.8h-7.75V273h9.55v26.65h5v-23.3Z" transform="translate(-281.23 -266.4)" style="fill:#df210d"/><path d="M437.94,297.2c-4.45,3.05-7.75,4.3-11.7,4.3a16.9,16.9,0,0,1-8.65-2.35,17.75,17.75,0,0,1-8.8-15.1,17.49,17.49,0,0,1,17.45-17.4,17.78,17.78,0,0,1,11.8,4.5l.7.7-1.25,1.3-.4-.4-.3-.25a15.43,15.43,0,0,0-10.55-4.1,15.22,15.22,0,0,0-7.8,2.1,15.65,15.65,0,0,0-7.85,13.55,15.22,15.22,0,0,0,2.1,7.8,15.71,15.71,0,0,0,13.55,7.8c3.4,0,6.25-1,9.9-3.4l-2.8-4.15c-2.85,1.8-4.75,2.5-7.1,2.5a10.17,10.17,0,0,1-5.15-1.45,11,11,0,0,1-5.35-9.1,10.38,10.38,0,0,1,1.45-5.25,10.2,10.2,0,0,1,9.05-5.25,10.73,10.73,0,0,1,6.1,1.9.8.8,0,0,0,.35.2l1.1-1.25-.4-.35a12.75,12.75,0,0,0-7.15-2.3,12.38,12.38,0,0,0-12.3,12.3,12.38,12.38,0,0,0,12.3,12.35,11.6,11.6,0,0,0,6.55-2l1,1.5a13.74,13.74,0,0,1-7.55,2.25,14.17,14.17,0,0,1-14.1-14.1,14.42,14.42,0,0,1,4.15-10,14.17,14.17,0,0,1,10-4.1,13.1,13.1,0,0,1,8.15,2.7,7.76,7.76,0,0,1,1.35,1l.55.55-3.35,4-.75-.55a4.33,4.33,0,0,0-.9-.7,8.44,8.44,0,0,0-5.05-1.6,8.73,8.73,0,0,0-8.7,8.75,7.79,7.79,0,0,0,1.25,4.25,8.84,8.84,0,0,0,7.45,4.45c2.15,0,3.7-.6,6.85-2.65l.8-.5,4.75,7.15Z" transform="translate(-281.23 -266.4)" style="fill:#df210d"/><path d="M471.24,299.7l-13.9-31.5h-1.2l-13.85,31.5h6l1.6-4h10.3l.75,1.7h-10l-1.7,4h-9.75l15.65-35h3.2l15.75,35-9.2,0-3.2-7.25-13.05,0-1.75,4.2h-2.2l2.55-5.85h15.5l3.2,7.15Zm-18.3-11.55,3.8-9.15,5.5,12.15h-14.5l9-20.2,12.3,27.4H467l-10.25-23.3-6.1,14.55h9l-2.85-6-1.85,4.55Z" transform="translate(-281.23 -266.4)" style="fill:#df210d"/><path d="M496.38,301.5l-6.85-12.85h-1.75V301.5h-8.7v-35h1.8v33.2h5.05V286.9l4.65,0,6.9,12.85h5.75l-5.55-10.45,1.65-.65,6.9,12.9Zm-13.9-35h8.85c5.75,0,9.85,1.9,11.85,5.45a12,12,0,0,1,1.3,5.55c0,6.15-3.2,9.8-9.2,10.85l5.45,10.15h-2.05L492.43,287l1.35-.15c5.65-.6,8.9-3.9,8.9-9.3,0-6-4.1-9.2-11.35-9.2h-7.05v30.15h-1.8Zm8.45,17.05c5.65,0,8.3-1.85,8.3-5.8s-2.6-6-7.05-6h-4.45v1.7h3.9c2.6,0,4.3.6,5.15,1.85a3.25,3.25,0,0,1,.65,2.15c0,2.85-2.35,4.4-6.8,4.4h-4.75V277h1.85v3.1h2.9c3.35,0,5-.85,5-2.6,0-1.5-1.35-2.25-4-2.25h-5.75V270h6.3c5.45,0,8.85,2.8,8.85,7.75,0,5.2-3.25,7.55-10.1,7.55h-5v-1.75Z" transform="translate(-281.23 -266.4)" style="fill:#df210d"/><path d="M539.18,284a17.84,17.84,0,0,1-5.05,12.45,14.88,14.88,0,0,1-10.45,5H509v-31.7h14.25c2.85,0,5.85,1.5,8.6,4.25a15,15,0,0,1,4,10,14.59,14.59,0,0,1-4.1,9.9c-2.45,2.6-5.65,4.15-8.4,4.15h-7.45v-.9l.05-20.65h1.75l-.05,19.75h5.7c2.2,0,4.85-1.4,7.05-3.6A12.69,12.69,0,0,0,534,284a13.2,13.2,0,0,0-1.5-6.05c-2-4-5.6-6.35-9.25-6.35l-12.45,0V299.6h12.85a11.75,11.75,0,0,0,6.65-2.3,15.69,15.69,0,0,0,7.1-13.3,16.57,16.57,0,0,0-1.9-7.55c-2.6-4.9-7.2-8.05-11.85-8.05l-14.65,0v-1.8h14.65a15,15,0,0,1,10.6,5A18,18,0,0,1,539.18,284Zm-16.05,8.85a7.37,7.37,0,0,0,5.1-2.8,9.64,9.64,0,0,0,2.5-6.1,9.11,9.11,0,0,0-1.05-4.3c-1.4-2.65-4.3-4.65-6.55-4.65l-8.9,0v23.1h-1.8l0-24.85,10.75-.05a8.33,8.33,0,0,1,4.6,1.45,11.49,11.49,0,0,1,4.8,9.25,10.44,10.44,0,0,1-1.35,5c-1.8,3.35-5.3,5.7-8.05,5.7h-3.55v-1.8Z" transform="translate(-281.23 -266.4)" style="fill:#df210d"/><path d="M545.08,297.3a23.32,23.32,0,0,0,8.9,2.4c.15,0,1.15-.15,3-.4a8.71,8.71,0,0,0,5.45-4.55l.1-.2a8,8,0,0,0,.8-3.75,7.28,7.28,0,0,0-.75-3.3,9.75,9.75,0,0,0-4.15-4.15c-1.35-.65-2.15-1-2.4-1.1l-1.25-.4-.65-.2c-2.7-.8-4.4-1.9-5.05-3.25a2.39,2.39,0,0,1-.25-1.2,3.72,3.72,0,0,1,.35-1.8l0-.1a3.76,3.76,0,0,1,2.45-2,4.2,4.2,0,0,1,1.75-.2c1.9,0,4.5.8,7.75,2.4l.8-1.25a18.21,18.21,0,0,0-8.7-2.65l-2,.25a5.71,5.71,0,0,0-3.45,2.85,4.81,4.81,0,0,0-.5,2.35,4.36,4.36,0,0,0,.45,2c.8,1.75,2.75,3,5.9,4l.65.2a27.06,27.06,0,0,1,4,1.65,6.24,6.24,0,0,1,3.5,5.85,7.86,7.86,0,0,1-1,4,7.53,7.53,0,0,1-6.8,3.5,17.89,17.89,0,0,1-8.15-2.15l.05-.1.85-1.45a21.84,21.84,0,0,0,7.2,1.9,5.68,5.68,0,0,0,5.35-2.8,6,6,0,0,0,.7-2.8,4.49,4.49,0,0,0-2.4-4.1,15.44,15.44,0,0,0-2.45-1.2l-1.35-.5-.65-.2c-3.65-1.1-6-2.75-7.05-5a6.27,6.27,0,0,1-.6-2.7,6.46,6.46,0,0,1,.65-3.1,7.34,7.34,0,0,1,4.6-3.85,6.21,6.21,0,0,1,2.65-.35,20.8,20.8,0,0,1,10.25,3.4l.8.45-2.7,4.3-.75-.45a16,16,0,0,0-7.65-2.65,4.24,4.24,0,0,0-1.65.2,2.13,2.13,0,0,0-1.1,2.05l.1.55a5.62,5.62,0,0,0,1.1,1.05,10.09,10.09,0,0,0,2.8,1.25l.7.2c4.4,1.4,7.3,3.45,8.65,6.15a13.34,13.34,0,0,1,1.15,4.55,12.1,12.1,0,0,1-.9,4.35l-.2.35a10.32,10.32,0,0,1-6.6,5.5,12.52,12.52,0,0,1-3.45.45,23.08,23.08,0,0,1-12.05-3.9l-.75-.45,4.4-7.1.75.45a16,16,0,0,0,7.65,2.65q2,0,2.55-1.2a1.87,1.87,0,0,0,.2-1,1.07,1.07,0,0,0-.15-.6l0-.1c-.45-.8-1.65-1.5-3.7-2.15l-.6-.2c-4.5-1.35-7.5-3.55-9.05-6.65a9,9,0,0,1-.9-4.1,11.3,11.3,0,0,1,.9-4.35l.15-.35a10.1,10.1,0,0,1,6.6-5.45,9.1,9.1,0,0,1,3.5-.5c3.65,0,7.85,1.45,12.7,4.4l-1,1.55c-4.45-2.75-8.4-4.15-11.8-4.15-.15,0-1.15.15-3,.4a8.71,8.71,0,0,0-5.45,4.55l-.1.2a9.78,9.78,0,0,0-.75,3.7,7.28,7.28,0,0,0,.75,3.3c1.25,2.65,3.85,4.55,7.9,5.75l.15,0,.5.15c2.65.85,4.1,1.75,4.75,3.1l.1.2a3.47,3.47,0,0,1-.05,3l0,.1a3.61,3.61,0,0,1-2.45,2,4.07,4.07,0,0,1-1.7.2,16.13,16.13,0,0,1-6.4-1.65l-1.4-.75-2.5,4.05Z" transform="translate(-281.23 -266.4)" style="fill:#df210d"/><path d="M374.21,349v12.5h-8.5v-35h1.8v33.2h4.9V347.2h11.7v-1.65H372.46v-1.8h13.45V349Zm-3.4-20.7v30h-1.75V326.5h19.3V335h-12.5v-1.8h10.7v-4.9Zm15.1,12.1v1.85h-13.5v-12.5H385v1.8h-10.8v8.85Z" transform="translate(-281.23 -266.4)" style="fill:#df210d"/><path d="M409,361.5l-6.85-12.85h-1.75V361.5h-8.7v-35h1.8v33.2h5.05V346.9l4.65,0,6.9,12.85h5.75l-5.55-10.45,1.65-.65,6.9,12.9Zm-13.9-35h8.85c5.75,0,9.85,1.9,11.85,5.45a12,12,0,0,1,1.3,5.55c0,6.15-3.2,9.8-9.2,10.85l5.45,10.15h-2.05L405,347l1.35-.15c5.65-.6,8.9-3.9,8.9-9.3,0-6-4.1-9.2-11.35-9.2h-7.05v30.15h-1.8Zm8.45,17.05c5.65,0,8.3-1.85,8.3-5.8s-2.6-6-7.05-6h-4.45v1.7h3.9c2.6,0,4.3.6,5.15,1.85a3.25,3.25,0,0,1,.65,2.15c0,2.85-2.35,4.4-6.8,4.4h-4.75V337h1.85v3.1h2.9c3.35,0,5-.85,5-2.6,0-1.5-1.35-2.25-4-2.25h-5.75V330h6.3c5.45,0,8.85,2.8,8.85,7.75,0,5.2-3.25,7.55-10.1,7.55h-5v-1.75Z" transform="translate(-281.23 -266.4)" style="fill:#df210d"/><path d="M436.41,361.5a17.94,17.94,0,0,1-15.2-8.85,16.78,16.78,0,0,1-2.4-8.7,17.69,17.69,0,0,1,8.9-15.2,17.49,17.49,0,0,1,8.7-2.35,17.75,17.75,0,0,1,15.2,8.85A17.49,17.49,0,0,1,454,344a17.91,17.91,0,0,1-8.8,15.15A17.08,17.08,0,0,1,436.41,361.5Zm0-33.35a15.8,15.8,0,0,0-7.9,29.45,15.44,15.44,0,0,0,7.9,2.1,15.71,15.71,0,0,0,13.7-7.85,15.86,15.86,0,0,0-5.8-21.6A15.71,15.71,0,0,0,436.41,328.15Zm0,30a14.44,14.44,0,0,1-12.35-7.1,13.37,13.37,0,0,1-2-7.05,14,14,0,0,1,14.3-14.1c5.45,0,10,2.5,12.35,6.8a15.29,15.29,0,0,1,1.75,7.3,14.11,14.11,0,0,1-14.1,14.15Zm0-26.5a12.47,12.47,0,0,0-10.75,6.1,12.44,12.44,0,0,0,4.55,17,11.56,11.56,0,0,0,6.2,1.7,12.25,12.25,0,0,0,10.7-6.25,12.07,12.07,0,0,0,1.65-6.15,12.29,12.29,0,0,0-6.15-10.75A12.87,12.87,0,0,0,436.41,331.6Zm0,23.25a10.8,10.8,0,0,1-9.45-5.5,10.49,10.49,0,0,1-1.5-5.4,10.88,10.88,0,0,1,5.45-9.45,10.75,10.75,0,0,1,16.2,9.45,10.58,10.58,0,0,1-5.25,9.4A10.4,10.4,0,0,1,436.41,354.85Zm0-20a9.18,9.18,0,0,0-7.85,4.55,8.5,8.5,0,0,0-1.25,4.5,9,9,0,0,0,9.1,9,8.81,8.81,0,0,0,7.8-4.5,9.16,9.16,0,0,0-3.3-12.3A8.92,8.92,0,0,0,436.41,334.9Z" transform="translate(-281.23 -266.4)" style="fill:#df210d"/><path d="M481.21,350.7l-5.45,10.35-15.3-28.8-4.2,27.4h5.1l1.7-11.2.4.75,1,2-1.6,10.35h-8.75l5.3-34.9.3.5,14.35,27.05,1.65,3.05,5-9.5.05.35Zm-7.1,10.8h-2.05l-9.8-18.45-2.4,15.3h-1.8l3.25-20.9Zm12.35,0h-1.8l-2.9-19-6.05,11.2-14.5-27.25h2.05l12.45,23.4,7-13Zm1.65,0-.15-.75h0l-4-26.2,1.4-2.65.45,3,3.8,24.75h1.65l-.85-5.75-3.75-24.4-.15-1.2h-1.2l-1.65,3.05-.15.35-4.4,8.2-3.3,6.25-1-1.9,2.35-4.35,7.1-13.45h3.85l5.3,35.05Z" transform="translate(-281.23 -266.4)" style="fill:#df210d"/><path d="M313,419.7l-13.9-31.5h-1.2L284,419.7h6l1.6-4h10.3l.75,1.7h-10l-1.7,4h-9.75l15.65-35h3.2l15.75,35-9.2,0-3.2-7.25-13.05-.05-1.75,4.2h-2.2l2.55-5.85h15.5l3.2,7.15Zm-18.3-11.55,3.8-9.15,5.5,12.15h-14.5l9-20.2,12.3,27.4h-2.05l-10.25-23.3-6.1,14.55h8.85l-2.75-6-1.85,4.55Z" transform="translate(-281.23 -266.4)" style="fill:#df210d"/><path d="M345.89,410.7l-5.45,10.35-15.3-28.8-4.2,27.4H326l1.7-11.2.4.75,1,2-1.6,10.35h-8.75l5.3-34.9.3.5,14.35,27.05,1.65,3.05,5-9.5.05.35Zm-7.1,10.8h-2.05l-9.8-18.45-2.4,15.3h-1.8l3.25-20.9Zm12.35,0h-1.8l-2.9-19-6.05,11.2-14.5-27.25h2.05l12.45,23.4,7-13Zm1.65,0-.15-.75h0l-4-26.2,1.4-2.65.45,3,3.8,24.75H356l-.85-5.75-3.75-24.4-.15-1.2H350l-1.65,3.05-.15.35-4.4,8.2-3.3,6.25-1-1.9,2.35-4.35,7.1-13.45h3.85l5.3,35.05Z" transform="translate(-281.23 -266.4)" style="fill:#df210d"/><path d="M363.84,417.3a23.32,23.32,0,0,0,8.9,2.4c.15,0,1.15-.15,3-.4a8.71,8.71,0,0,0,5.45-4.55l.1-.2a8,8,0,0,0,.8-3.75,7.28,7.28,0,0,0-.75-3.3,9.75,9.75,0,0,0-4.15-4.15c-1.35-.65-2.15-1-2.4-1.1l-1.25-.4-.65-.2c-2.7-.8-4.4-1.9-5.05-3.25a2.39,2.39,0,0,1-.25-1.2,3.72,3.72,0,0,1,.35-1.8l0-.1a3.76,3.76,0,0,1,2.45-2,4.2,4.2,0,0,1,1.75-.2c1.9,0,4.5.8,7.75,2.4l.8-1.25a18.21,18.21,0,0,0-8.7-2.65l-2,.25a5.71,5.71,0,0,0-3.45,2.85,4.81,4.81,0,0,0-.5,2.35,4.36,4.36,0,0,0,.45,2c.8,1.75,2.75,3,5.9,4l.65.2a27,27,0,0,1,4,1.65,6.24,6.24,0,0,1,3.5,5.85,7.86,7.86,0,0,1-1,4,7.53,7.53,0,0,1-6.8,3.5,17.9,17.9,0,0,1-8.15-2.15l.05-.1.85-1.45a21.84,21.84,0,0,0,7.2,1.9,5.68,5.68,0,0,0,5.35-2.8,6,6,0,0,0,.7-2.8,4.49,4.49,0,0,0-2.4-4.1,15.48,15.48,0,0,0-2.45-1.2l-1.35-.5-.65-.2c-3.65-1.1-6-2.75-7.05-5a6.27,6.27,0,0,1-.6-2.7,6.46,6.46,0,0,1,.65-3.1,7.34,7.34,0,0,1,4.6-3.85,6.21,6.21,0,0,1,2.65-.35,20.8,20.8,0,0,1,10.25,3.4l.8.45-2.7,4.3-.75-.45a16,16,0,0,0-7.65-2.65,4.24,4.24,0,0,0-1.65.2,2.13,2.13,0,0,0-1.1,2.05l.1.55a5.62,5.62,0,0,0,1.1,1.05,10.09,10.09,0,0,0,2.8,1.25l.7.2c4.4,1.4,7.3,3.45,8.65,6.15a13.34,13.34,0,0,1,1.15,4.55,12.09,12.09,0,0,1-.9,4.35l-.2.35a10.32,10.32,0,0,1-6.6,5.5,12.54,12.54,0,0,1-3.45.45,23.08,23.08,0,0,1-12.05-3.9l-.75-.45,4.4-7.1.75.45a16,16,0,0,0,7.65,2.65q2,0,2.55-1.2a1.87,1.87,0,0,0,.2-1,1.06,1.06,0,0,0-.15-.6l0-.1c-.45-.8-1.65-1.5-3.7-2.15l-.6-.2c-4.5-1.35-7.5-3.55-9.05-6.65a9,9,0,0,1-.9-4.1,11.3,11.3,0,0,1,.9-4.35l.15-.35a10.1,10.1,0,0,1,6.6-5.45,9.1,9.1,0,0,1,3.5-.5c3.65,0,7.85,1.45,12.7,4.4l-1,1.55c-4.45-2.75-8.4-4.15-11.8-4.15-.15,0-1.15.15-3,.4a8.71,8.71,0,0,0-5.45,4.55l-.1.2a9.78,9.78,0,0,0-.75,3.7,7.28,7.28,0,0,0,.75,3.3c1.25,2.65,3.85,4.55,7.9,5.75l.15,0,.5.15c2.65.85,4.1,1.75,4.75,3.1l.1.2a3.47,3.47,0,0,1-.05,3l0,.1a3.61,3.61,0,0,1-2.45,2,4.06,4.06,0,0,1-1.7.2,16.12,16.12,0,0,1-6.4-1.65l-1.4-.75-2.5,4.05Z" transform="translate(-281.23 -266.4)" style="fill:#df210d"/><path d="M400.24,394.8v23.4h-1.8V393h12v-4.75H389.14v1.55h19.55v1.8H387.33v-5.15h24.85v8.35Zm3.45,1.55V421.5h-8.6V394.8h-7.75V393h9.55v26.65h5v-23.3Z" transform="translate(-281.23 -266.4)" style="fill:#df210d"/><path d="M438.09,412.9v8.6H415.33V386.6h1.8v33.1h19.15v-5h-14.1v-4.8H424v3Zm-5.9-10.05v1.8H418.73V386.6h19.1v8.55h-12v-1.8H436v-5h-15.5v14.45Zm2.35,13.5v1.8h-15.8v-11.9h15.2v-5H422.19V389.9h12.1v1.8H424v7.75h11.75v8.6h-15.2v8.3Z" transform="translate(-281.23 -266.4)" style="fill:#df210d"/><path d="M460.29,421.5l-6.85-12.85h-1.75V421.5H443v-35h1.8v33.2h5.05V406.9l4.65-.05,6.9,12.85h5.75l-5.55-10.45,1.65-.65,6.9,12.9Zm-13.9-35h8.85c5.75,0,9.85,1.9,11.85,5.45a12,12,0,0,1,1.3,5.55c0,6.15-3.2,9.8-9.2,10.85l5.45,10.15h-2.05L456.33,407l1.35-.15c5.65-.6,8.9-3.9,8.9-9.3,0-6-4.1-9.2-11.35-9.2h-7.05v30.15h-1.8Zm8.45,17.05c5.65,0,8.3-1.85,8.3-5.8,0-3.8-2.6-6-7.05-6h-4.45v1.7h3.9c2.6,0,4.3.6,5.15,1.85a3.25,3.25,0,0,1,.65,2.15c0,2.85-2.35,4.4-6.8,4.4h-4.75V397h1.85v3.1h2.9c3.35,0,5-.85,5-2.6,0-1.5-1.35-2.25-4-2.25h-5.75V390h6.3c5.45,0,8.85,2.8,8.85,7.75,0,5.2-3.25,7.55-10.1,7.55h-5v-1.75Z" transform="translate(-281.23 -266.4)" style="fill:#df210d"/><path d="M503.08,404A17.84,17.84,0,0,1,498,416.45a14.88,14.88,0,0,1-10.45,5H472.93v-31.7h14.25c2.85,0,5.85,1.5,8.6,4.25a15,15,0,0,1,4,10,14.59,14.59,0,0,1-4.1,9.9c-2.45,2.6-5.65,4.15-8.4,4.15h-7.45v-.9l.05-20.65h1.75l-.05,19.75h5.7c2.2,0,4.85-1.4,7.05-3.6a12.69,12.69,0,0,0,3.65-8.65,13.2,13.2,0,0,0-1.5-6.05c-2-4-5.6-6.35-9.25-6.35l-12.45,0V419.6h12.85a11.75,11.75,0,0,0,6.65-2.3,15.69,15.69,0,0,0,7.1-13.3,16.57,16.57,0,0,0-1.9-7.55c-2.6-4.9-7.2-8.05-11.85-8.05l-14.65,0v-1.8h14.65a15,15,0,0,1,10.6,5A18,18,0,0,1,503.08,404ZM487,412.85a7.37,7.37,0,0,0,5.1-2.8,9.64,9.64,0,0,0,2.5-6.1,9.11,9.11,0,0,0-1.05-4.3c-1.4-2.65-4.3-4.65-6.55-4.65l-8.9,0v23.1h-1.8l0-24.85,10.75-.05a8.33,8.33,0,0,1,4.6,1.45,11.49,11.49,0,0,1,4.8,9.25,10.44,10.44,0,0,1-1.35,5c-1.8,3.35-5.3,5.7-8.05,5.7h-3.55v-1.8Z" transform="translate(-281.23 -266.4)" style="fill:#df210d"/><path d="M532.79,419.7l-13.9-31.5h-1.2l-13.85,31.5h6l1.6-4h10.3l.75,1.7h-10l-1.7,4H501l15.65-35h3.2l15.75,35-9.2,0-3.2-7.25-13.05-.05-1.75,4.2h-2.2l2.55-5.85h15.5l3.2,7.15Zm-18.3-11.55,3.8-9.15,5.5,12.15h-14.5l9-20.2,12.3,27.4h-2.05l-10.25-23.3-6.1,14.55h9l-2.85-6-1.85,4.55Z" transform="translate(-281.23 -266.4)" style="fill:#df210d"/><path d="M565.69,410.7l-5.45,10.35-15.3-28.8-4.2,27.4h5.1l1.7-11.2.4.75,1,2-1.6,10.35h-8.75l5.3-34.9.3.5,14.35,27.05,1.65,3.05,5-9.5.05.35Zm-7.1,10.8h-2.05l-9.8-18.45-2.4,15.3h-1.8l3.25-20.9Zm12.35,0h-1.8l-2.9-19-6.05,11.2-14.5-27.25h2.05l12.45,23.4,7-13Zm1.65,0-.15-.75h0l-4-26.2,1.4-2.65.45,3,3.8,24.75h1.65l-.85-5.75-3.75-24.4-.15-1.2h-1.2l-1.65,3.05-.15.35-4.4,8.2-3.3,6.25-1-1.9,2.35-4.35,7.1-13.45h3.85l5.3,35.05Z" transform="translate(-281.23 -266.4)" style="fill:#df210d"/></svg>